<svg width="160" height="48" viewBox="0 0 160 48" fill="none" xmlns="http://www.w3.org/2000/svg">
  <rect width="160" height="48" rx="12" fill="url(#grad)"/>
  <path d="M34 14v20h-6V14h6zm10.2 0c3.9 0 6.8 2.1 6.8 6.4v13.6h-6v-12.8c0-1.9-1.2-3.2-3.1-3.2-2 0-3.3 1.3-3.3 3.2v12.8h-6V14h5.8v2.2c1.1-1.6 2.9-2.2 4.8-2.2zm23.8 0v4.8h-12.2V14h12.2zm-12.2 7.2h6.2c3.9 0 6.8 2.1 6.8 6.4 0 4.3-2.9 6.4-6.8 6.4h-12.2v-4.8H62c2.2 0 3.4-.9 3.4-2.6 0-1.7-1.2-2.6-3.4-2.6h-6.2v-2.8zM92 14c7.2 0 12 4.8 12 10s-4.8 10-12 10-12-4.8-12-10 4.8-10 12-10zm0 5c-3.2 0-6 2.3-6 5s2.8 5 6 5 6-2.3 6-5-2.8-5-6-5zm16.2-5l5.8 9.4 5.8-9.4h6.8l-9.2 14.2V34h-6v-5.8L102.8 14h5.4z" fill="#fff"/>
  <defs>
    <linearGradient id="grad" x1="0" y1="0" x2="160" y2="48" gradientUnits="userSpaceOnUse">
      <stop stop-color="#3b82f6"/>
      <stop offset="1" stop-color="#1d4ed8"/>
    </linearGradient>
  </defs>
</svg>
